<?xml version="1.0" encoding="utf-8"?>
<!-- Generator: Adobe Illustrator 24.2.0, SVG Export Plug-In . SVG Version: 6.00 Build 0)  -->
<svg version="1.1" id="Layer_1" xmlns="http://www.w3.org/2000/svg" xmlns:xlink="http://www.w3.org/1999/xlink" x="0px" y="0px"
	 viewBox="0 0 1000 1000" style="enable-background:new 0 0 1000 1000;" xml:space="preserve">
<style type="text/css">
	.st0{fill:#ffffff;}
</style>
<path class="st0" d="M867.9,500.5c0-61.9-0.2-123.9,0.2-185.8c0.1-9.4-3.1-16.8-8.6-23.8c-4.8-6.1-10.6-11.2-17-15.7
	c-12.4-8.6-26.1-14.7-39.1-22.2c-28.3-16.3-56.5-32.7-84.9-48.8c-55.4-31.4-110.9-62.7-166.4-94c-12.4-7-24.9-13.6-37.4-20.5
	c-1.6-0.9-3.1-1.2-4.9-1.4c-14.2-1.2-27.6,0.5-39.3,9.5c-0.7,0.6-1.7,0.8-2.5,1.3c-28.7,15.2-56.6,31.8-85.2,47.2
	c-9.2,5-18.1,10.8-27.2,16.1c-62.5,36-125,71.9-188,107c-11.9,6.6-22.8,14.7-31.1,25.9c-2.9,3.9-4.9,8-4.5,13
	c0.3,4.2,0.1,8.5,0.1,12.8c0,124,0,248.1,0,372.1c0,2.5,0.7,4.5,2,6.6c8.4,12.8,19.9,22.4,32.7,30.4c15.7,9.8,32.6,17.3,48.6,26.4
	c58.7,33.7,117.4,67.3,176.1,100.8c26.7,15.3,53.6,30.2,80.3,45.6c10.2,5.9,20.7,9.7,32.7,8.2c3.9-0.5,7.7-0.1,11.4-2.2
	c16.2-9.1,32.7-17.7,48.8-26.8c59.1-33.6,118.1-67.4,177.1-101.1c28.4-16.2,56.8-32.2,85.2-48.3c9.6-5.4,20-9.7,27.1-18.7
	c3.8-4.8,7.4-9.9,11.3-14.6c1.9-2.2,2.6-4.4,2.6-7.3C867.9,628.5,868,564.5,867.9,500.5C867.9,500.5,867.9,500.5,867.9,500.5z
	 M816.7,316.3c5.5,0.7,6.6,2.4,4.4,7.6c-6.8,16.7-13.6,33.3-20.4,49.9c-20.6,50.4-41.1,100.8-61.6,151.2
	c-5.5,13.6-11.1,27.1-16.6,40.7c-0.6,1.5-1.1,3.3-2.8,3.6c-1.3,0.2-1.8-1.5-2.5-2.5C665,489.9,612.9,413.1,560.8,336.2
	c-9.8-14.5-19.6-29-29.4-43.5c-1.2-1.8-3.9-3.7-3.1-5.5c1-2.1,4.2-1.4,6.1-1.4c16.9,1.8,33.3,3.4,49.8,5.2c24.8,2.6,49.6,5.3,74.4,8
	c24.9,2.7,49.9,5.6,74.8,8.3c22.6,2.4,45.2,4.6,67.8,7C806.4,314.9,811.6,315.6,816.7,316.3z M520.7,127.9
	c50,28.5,99.9,57,149.9,85.5c39.6,22.6,79.2,45.1,118.8,67.7c1.8,1,3.5,2,5.4,3.2c-4.2,3.6-8.4,4.8-13.7,4
	c-27.1-4.1-54.4-7.3-81.7-10.1c-31.9-3.3-63.7-6.7-95.5-10.2c-26.7-2.9-53.3-5.9-80-8.8c-1.4-0.2-2.8-0.3-4.2-0.6
	c-5.9-0.9-7.3-2.4-7.3-8.4c0-15.3,0.1-30.6,0.1-46c-0.1-23.2-0.3-46.4-0.5-69.6c0-0.6,0-1.3,0-1.9
	C512.1,125.7,514.4,124.3,520.7,127.9z M494.2,300.3c4.8-6.3,7.2-6.3,11.7,0.3c16.5,24.3,32.9,48.6,49.4,72.9
	c18.4,27.2,36.8,54.3,55.3,81.4c28,41.1,56,82.1,84.1,123.2c1.2,1.7,2.4,3.4,1.4,5.6c-0.9,2-2.6,2-4.4,2
	c-26.5-0.1-53.1-0.3-79.6-0.3c-73.8-0.1-147.5-0.1-221.3-0.1c-25.4,0-50.7,0-76.1,0c-4.1,0-8.2-0.4-13.3-0.7
	c9.2-13.5,17.7-26.2,26.3-38.8c16.1-23.6,32.1-47.3,48.2-70.9c26.6-39.1,53.2-78.2,79.8-117.4c12.7-18.7,25.2-37.4,37.8-56.1
	C493.6,301,493.9,300.6,494.2,300.3z M370.6,189.9c35.6-20.3,71.2-40.5,106.9-60.7c8.4-4.8,10.1-3.7,10.1,6.2
	c0,17.4-0.2,34.7-0.2,52.1c0,20.4,0.2,40.7,0.2,61.1c0,7.9-1,9-8.7,9.9c-30.4,3.3-60.8,6.7-91.3,9.9c-40.6,4.3-81.2,8.6-121.8,12.9
	c-14.9,1.6-29.8,3.1-44.7,4.8c-2.6,0.3-5.3,0.8-7.8,1.8c-3.9,1.5-7,0.4-10.3-2.6C259.4,253.2,315,221.5,370.6,189.9z M183.7,315.3
	c5.5-0.7,11-1.3,16.5-1.8c20.5-2.1,41.1-4.2,61.6-6.3c25.6-2.7,51.2-5.3,76.8-8c12.2-1.3,24.5-2.5,36.7-3.8
	c25.9-2.7,51.7-5.5,77.6-8.2c5.2-0.5,10.4-1,15.5-1.3c1.2-0.1,2.8-0.5,3.5,0.7c0.8,1.4-0.8,2.2-1.4,3.2
	c-21.9,32.3-43.7,64.6-65.7,96.8c-7.3,10.7-15.1,21.1-22.1,31.9c-26.3,40.5-54.2,79.9-81,120.1c-7.2,10.8-14.5,21.4-22.4,32.9
	c-4.6-11.4-8.8-21.9-13.1-32.3c-18.5-45.9-37-91.9-55.5-137.8c-10.1-25.1-20.4-50.3-30.6-75.4c-0.4-1-0.8-2.1-1.1-3.1
	C177.4,318.1,178.7,316,183.7,315.3z M166.6,672.2c-2.9,1.6-3.8,0.9-3.7-2.3c0.1-15.6,0.1-31.3,0.1-46.9c0-35.9,0-71.7,0-107.6
	c0,0,0,0,0,0c0-50.9,0-101.8,0-152.6c0-1.4-1-3.6,1.1-4.1c1.9-0.5,2.5,1.6,3.1,3c11.2,27.8,22.3,55.6,33.6,83.4
	c18.2,44.8,36.5,89.6,54.7,134.5c0.5,1.2,0.9,2.4,1.4,3.5c4.1,10.6,3.5,13.1-5.4,20.3c-14.7,11.9-29.7,23.6-44,35.9
	c-10.8,9.3-21.8,18.2-32.6,27.5C172.3,668.9,169.5,670.6,166.6,672.2z M455.7,858.5c-7.7-4.4-15.4-8.6-23.1-13
	c-14.8-8.4-29.7-16.8-44.5-25.2c-57.7-32.8-115.4-65.6-173.1-98.4c-10.5-6-21.1-11.9-31.6-18c-6.7-3.9-6.9-5.7-1-10.6
	c28.7-24,57.5-47.9,86.3-71.8c4.4-3.6,7.3-3.2,10.8,1.4c32.5,42.2,64.9,84.4,97.4,126.5c26.8,34.9,53.7,69.8,80.5,104.7
	c0.8,1,1.5,2,2.2,2.9C458.9,859.6,457.6,859.6,455.7,858.5z M508.1,857.1c-8.2,10.7-8.6,10.8-16.6,0.3
	c-34.5-44.8-68.9-89.7-103.3-134.5c-25.8-33.5-51.6-67-77.4-100.5c-1.4-1.9-3-3.6-4.6-5.4c-1.2-1.4-2-2.9-1.1-4.8
	c0.9-1.8,2.5-2.2,4.4-1.7c21.2,0,42.3,0,63.5,0c41.5,0,82.9-0.3,124.4,0.1c61.3,0.6,122.5-0.1,183.8,0.4c2.5,0,5-0.5,7.5-0.7
	c2.2-0.2,4.2,0.1,5.4,2.1c1.2,2.1,0.2,3.9-1.1,5.6c-20.5,25.1-39.7,51.1-59.6,76.6c-23,29.5-45.8,59.2-68.7,88.8
	C545.8,808,526.9,832.5,508.1,857.1z M817.7,703c-10,5.8-19.9,11.5-29.9,17.2c-15.5,8.8-31.1,17.5-46.5,26.3
	C682,780.3,622.9,814,563.7,847.8c-6.1,3.5-12.3,6.9-18.5,10.3c-1.1,0.6-2.3,2.1-3.8,0.7c-1.8-1.8,0.3-2.9,1.1-3.9
	c26.5-34.6,53-69.1,79.5-103.6c32-41.7,64-83.4,96.1-125.1c7.2-9.3,7.9-9.2,16.9-1.7c26.2,21.8,52.6,43.4,78.9,65.1
	c2.1,1.7,4,3.5,6,5.4c0.9,0.9,1.8,1.8,1.9,3.6C821.5,700.7,819.6,701.9,817.7,703z M836,669.4c0,1.2,0,2.4,0,4.9
	c-13.1-10.8-25.2-20.7-37.3-30.6c-17.9-14.7-35.9-29.5-53.8-44.2c-5.4-4.4-5.9-6.3-3.3-12.6c21.1-51.7,42.1-103.4,63.2-155.1
	c8.5-20.7,16.9-41.5,25.4-62.2c1.1-2.8,1.8-7.8,4.6-7.3c2.7,0.5,1.2,5.5,1.2,8.4C836,470.3,836,569.9,836,669.4z M551.2,241.6
	c10.7-14.4,20.2-29,28.9-44.6c0,0-0.1,0-0.1,0c-3.9,1.5-5.9,2.2-10.3,3.7c2.3-4.1,3.5-6.2,5.9-10.4c5-2,7.3-3.1,11.4-5.1
	c2.1,0.6,3.2,0.9,5.5,1.5c-6.3,20.1-14.3,38.8-24.3,57.4C561.2,243,557.8,242.5,551.2,241.6z M656.1,256.5
	c-20.6-2.9-41.1-5.8-61.7-8.8c0.9-3.3,1.3-4.9,2.1-8.2c4.5-2.2,6.7-3.3,10.6-5.5c8.6-5.4,20.6-11.6,18.8-22.2
	c-0.8-4.6-5-9.2-10.4-10.2c-4-0.7-7.2,1.2-9.7,3.1c-1.2-4.2-1.7-6.3-2.6-10.5c3-2.8,7-4.7,12-3.5c10.4,2.5,18.9,12.8,23.7,22
	c4.5,8.6-2,20-10.2,23.6c-2.5,1.5-3.8,2.2-6.6,3.6c0,0.1,0,0.1,0,0.2c10.1,1.5,20.2,2.9,30.3,4.3C654,249.3,654.7,251.7,656.1,256.5
	z M425.1,436.2c7.3-5.5,18.7-10,31.9-10c22,0,34.2,12.9,34.2,30.6c0,16.3-11.8,29.4-25.9,42l-9,7.5v0.3h36.7v18.7h-69.1v-13.8
	l12.6-11.4c21.3-19,31.6-30,31.9-41.4c0-7.9-4.8-14.2-16-14.2c-8.4,0-15.7,4.2-20.8,8.1L425.1,436.2z M542.1,526.9
	c24.9,0,37-20.7,37-50.8c0-26.7-10.2-49.9-36.3-49.9c-25.2,0-37.2,22.3-37.2,50.5C505.8,504.3,516.9,526.9,542.1,526.9z
	 M542.5,443.4c9.1,0,13.8,11.4,13.8,33c0,22.2-4.8,33.3-13.6,33.3s-14.2-10.6-14.1-33C528.5,454,534.2,443.4,542.5,443.4z
	 M574.9,727.8l-25.8,12h-18.9v-97.5h22v77.2h0.3l18.6-8.8L574.9,727.8z M457.7,642.3h-21.6v23.2h-11.7v17.1h11.7v57.1H464l36.9-59.4
	v-14.8h-43.2V642.3z M479.6,682.6v0.3l-13,21.3c-3.3,6.1-5.8,11.8-9,18.1H457c0.5-6.3,0.8-12.3,0.8-18.1v-21.6H479.6z M257.6,407
	c10.8,6.4,22.1,3.3,30-3l0.4,0.2c-0.8,10.7,4,18.8,11.3,23.1c10.2,6,26.4,4.6,38-15c9.9-16.8,8.1-35.1-6.1-43.5
	c-7.4-4.4-16.6-4.4-25.5,1.3l-0.4-0.2c1.4-11.5-2.1-21.5-12.2-27.4c-11.4-6.7-29.2-4-41.8,17.3C239.8,379.1,242.4,397.9,257.6,407z
	 M302.5,392.8c6-5.5,12.7-8.5,18.4-5.1c5.3,3.1,7.6,9.2,3.6,15.9c-4.3,7.2-11.2,7.1-16.4,4.1C302.9,404.5,301.1,398,302.5,392.8z
	 M264.4,368.5c4.4-7.4,12.8-8.6,18.8-4.9c6.1,3.6,8.5,10.1,6.5,17.6c-6.7,6.5-14.3,9.3-21.6,5C262.1,382.6,260.3,375.4,264.4,368.5z
	 M719.4,334.5c8.8,2.7,19.1,9.4,26.8,20.1c12.8,17.9,9.4,35.3-5,45.6c-13.3,9.5-30.8,7.5-49.2,3.4l-11.3-2.9l-0.2,0.2l21.4,29.9
	l-15.2,10.9l-40.3-56.2l11.2-8l16.6,3.6c27.9,6.2,42.8,8.3,52.3,1.9c6.5-4.6,8.8-12.2,2.2-21.3c-4.9-6.8-12.6-10.4-18.7-12.2
	L719.4,334.5z M749.9,656.6l-17-13.3l-14.3,18.3l-9.2-7.2l-10.5,13.5l9.2,7.2l-35.2,45l22,17.2l65.6-24.1l9.1-11.7l-34-26.6
	L749.9,656.6z M742.3,701.8l-0.2,0.2l-23.4,8.8c-6.4,2.8-11.9,5.7-18.3,8.8l-0.5-0.4c4.2-4.7,8.2-9.2,11.8-13.8l13.3-17L742.3,701.8
	z M256.9,658.8C240,670,238,687.9,247,701.5c5.1,7.6,11.2,11.7,17.9,12.9l0.2,0.4c-10.9,4.2-24.5,2.4-37.1-13.6
	c-2.2-2.8-3.9-5-5.1-7.2l-14.6,9.7c1.1,2,2.6,4.2,5.2,7.5c9.1,12.3,20,20.2,32.8,23.4c13.9,3.4,30.4,0.5,45.7-9.6
	c19.4-12.8,28.5-34.2,14.1-55.8C294.5,651.7,273,648.1,256.9,658.8z M284.6,702.9c-2.3,1.5-3.9,2.2-5.2,2.4
	c-5.4,0.9-11.3-1.3-14.7-6.4c-5.4-8.1-1.5-16.4,6-21.4c8.3-5.5,17.2-5.3,21.7,1.5C298,687.5,293,696.8,284.6,702.9z M185.1,585.6
	c4.2,3,6.5,4.6,11.5,7.7c-6.7,1-10.2,1.4-17.3,2.4c-6.3-4.3-9.1-6.3-14.1-10.4c-0.2-3.2-0.2-4.8-0.1-7.9c26.7-1.9,53.4-4,80-6.7
	c3.5,4.1,5.3,6.1,9.1,10.2c-23,1.8-46.1,3.4-69.1,4.7C185.1,585.5,185.1,585.6,185.1,585.6z M176.5,556.3c9.1,5.1,20.6,4.2,30.8,3.9
	c10.8-0.4,24.1-8.9,15.2-20.9c-6.2-8.4-13.9-14.2-20.9-12.3c-7.3,2-13.1,9-13.1,16c0,3.9,1.8,6.5,5.2,8.2c0,0.1,0,0.1,0,0.2
	c-7.2-0.1-13.8-3-13-11.5c0.1-1.5,0.3-2.6,0.7-3.7c-3.4,0.7-5.1,1-8.8,1.6c-0.5,1-0.9,2.1-1.4,3.8
	C169.2,548.1,170.9,553.1,176.5,556.3z M204.5,537c4.5-0.9,8.6,0.6,10.3,4.1c2.3,4.5-1.5,7.6-7.4,8.7c-1.6,0.2-2.7,0.3-3.4,0.1
	c-3.2-0.5-5.9-2.4-6.4-5.1C196.8,540.6,200.4,537.8,204.5,537z M385.7,243.7c-6.7,1.4-10.2,2.2-17.5,3.4c6.9-15,14.1-29.9,21.3-44.7
	c-0.1,0-0.1,0-0.2,0c-5.5,3.1-8.2,4.6-13.9,7.1c1.7-3.9,2.6-5.9,4.6-9.9c6.7-3.3,10.1-5.4,17-9.7c4.1-1.1,6.3-1.7,10.9-3
	C400.6,205.9,393.2,224.8,385.7,243.7z M432.1,242c18.5,4.3,26.9-9.5,28.8-26.8c1-9.7,4.8-40.8-10.3-39.5
	c-14.8,1.3-27.9,20.6-32.6,35C413.6,223.9,417.1,238.6,432.1,242z M433,208.7c4.3-14.1,9.7-21.5,14.4-21.7c5.1-0.3,5.5,7.8,2.1,22.9
	c-3.5,15.5-8.3,22-13.9,20.8S428.8,222.7,433,208.7z M827.9,512.1c1.7,5.6,2.4,8.3,3.5,13.9c-1.2,2.9-1.9,4.5-3.5,7.8
	c-18-4.9-30.8-2.9-48.4,2.8c1.9-5.7,2.8-8.6,4.6-14.3c11.9-4,24.5-6.7,36.8-2.8c0-0.1,0-0.1,0.1-0.1c-0.6-4.1-0.9-6.2-1.7-10.4
	C822.7,509.7,824.4,510.2,827.9,512.1z M806,549.8c-4.4,0.5-9.4,4.3-14.1,11.1c-0.1,0-0.1,0-0.2,0.1c0.4-6.3-2.4-9.7-7.5-7.8
	c-10.3,3.9-17.5,16.9-21.9,26.7c-2.6,5.8-10.4,23.5,1.6,22.2c6.4-0.7,14.2-8.9,18.8-15.9c0.1,0,0.1,0,0.2-0.1
	c-0.3,5.7,2.9,7.3,7,5.8c9.7-3.5,17.4-13.4,21.8-22.8C817,557.9,814.5,548.9,806,549.8z M783.4,573.9c-3.6,6.4-8,11.6-12.3,12.7
	c-3.5,0.9-4.3-2-1.9-7.4c2.5-5.6,7-10,10.3-11C782.8,567.2,784.4,569.2,783.4,573.9z M803.8,569.2c-2.2,5.2-6.2,8-9.2,8.9
	c-3.1,0.9-4.3-1.4-3.7-4.6c3.2-5.5,6.8-9.9,10.1-10.6C804.2,562.3,805.8,564.4,803.8,569.2z"/>
</svg>
